<?xml version="1.0" encoding="UTF-8"?><svg xmlns="http://www.w3.org/2000/svg" viewBox="0 0 146.02 18.79"><defs><style>.d{fill:#fff;}.e{fill:none;stroke:#ecfffa;stroke-miterlimit:10;stroke-width:2px;}</style></defs><g id="a"/><g id="b"><g id="c"><g><path class="d" d="M0,.51H13.02V3.94H4.7v3.58h7.34v3.43H4.7v7.34H0V.51Z"/><path class="d" d="M14.34,.51h7.57c1.68,0,3.17,.35,4.48,1.05,1.31,.7,2.34,1.72,3.08,3.06,.74,1.34,1.12,2.93,1.12,4.77s-.37,3.44-1.12,4.77c-.74,1.34-1.77,2.36-3.08,3.06-1.31,.7-2.81,1.05-4.48,1.05h-7.57V.51Zm9.15,13.52c.6-.38,1.04-.96,1.33-1.73,.29-.77,.43-1.74,.43-2.91s-.14-2.14-.43-2.91c-.29-.77-.73-1.35-1.33-1.73-.6-.38-1.38-.57-2.35-.57h-1.85V14.6h1.85c.96,0,1.75-.19,2.35-.57Z"/><path class="d" d="M30.06,.51h5.31l2.23,6.45c.74,2.17,1.29,4.04,1.62,5.61h.05c.37-1.69,.91-3.56,1.62-5.61l2.23-6.45h5.31l-6.65,17.77h-5.08L30.06,.51Z"/><path class="d" d="M51.87,18c-1.22-.52-2.15-1.29-2.78-2.29-.63-1-.95-2.19-.95-3.58h5.33c0,.69,.11,1.26,.34,1.7,.23,.44,.56,.76,.99,.96s.94,.3,1.54,.3c.56,0,1.04-.08,1.45-.25,.41-.17,.72-.41,.95-.74,.23-.32,.34-.71,.34-1.17,0-.64-.22-1.13-.66-1.46s-1.04-.5-1.8-.5h-2.18c-2,0-3.5-.45-4.52-1.36-1.02-.91-1.52-2.15-1.52-3.74,0-1.22,.3-2.27,.89-3.15,.59-.88,1.48-1.56,2.65-2.03,1.18-.47,2.62-.71,4.33-.71s3.2,.25,4.38,.74c1.18,.49,2.06,1.21,2.64,2.15,.58,.94,.88,2.08,.88,3.41h-5.15c0-.91-.23-1.58-.7-1.99-.47-.41-1.16-.62-2.07-.62-.58,0-1.06,.07-1.46,.22-.4,.14-.7,.35-.9,.62-.2,.27-.3,.6-.3,.99,0,.56,.2,.99,.61,1.31,.41,.31,.98,.47,1.73,.47h2.18c2.06,0,3.63,.47,4.71,1.42,1.07,.95,1.61,2.23,1.61,3.86,0,1.24-.32,2.32-.95,3.26-.63,.94-1.56,1.67-2.78,2.18-1.22,.52-2.68,.77-4.39,.77s-3.2-.26-4.42-.79Z"/></g><line class="e" x1="72.21" y1=".51" x2="72.21" y2="18.28"/><g><path class="d" d="M80.59,4.99h3.91c.5,0,.95,.09,1.33,.26,.38,.18,.68,.42,.89,.74s.32,.68,.32,1.1c0,.49-.15,.89-.45,1.21s-.72,.51-1.25,.56v.02c.71,.02,1.27,.22,1.67,.6,.4,.38,.61,.86,.61,1.46,0,.46-.12,.87-.36,1.24s-.58,.66-1.02,.88c-.44,.21-.95,.32-1.54,.32h-4.12V4.99Zm4.1,3.25c.17-.08,.3-.19,.39-.34,.09-.15,.13-.32,.13-.52,0-.3-.1-.54-.29-.72-.2-.18-.48-.26-.85-.26h-1.69v1.96h1.69c.24,0,.45-.04,.62-.11Zm.45,3.61c.22-.09,.38-.22,.48-.4,.1-.17,.16-.38,.16-.62,0-.36-.12-.64-.37-.84-.24-.2-.6-.3-1.06-.3h-1.97v2.29h1.97c.31,0,.58-.05,.79-.14Z"/><path class="d" d="M89.95,13.19c-.51-.28-.92-.68-1.21-1.21-.3-.53-.44-1.16-.44-1.9s.15-1.37,.44-1.9c.3-.53,.7-.93,1.21-1.21,.51-.28,1.08-.41,1.72-.41s1.2,.14,1.72,.41c.51,.28,.92,.68,1.21,1.21,.3,.53,.44,1.16,.44,1.9s-.15,1.37-.44,1.9c-.3,.53-.7,.93-1.21,1.21-.51,.28-1.08,.41-1.72,.41s-1.2-.14-1.72-.41Zm2.54-1.15c.23-.16,.41-.41,.53-.74s.19-.73,.19-1.21-.06-.88-.19-1.21c-.12-.33-.3-.57-.53-.74s-.51-.25-.83-.25-.61,.08-.84,.25c-.23,.16-.41,.41-.53,.74-.12,.33-.18,.73-.18,1.21s.06,.88,.18,1.21,.3,.57,.53,.74c.23,.16,.51,.25,.84,.25s.6-.08,.83-.25Z"/><path class="d" d="M95.25,6.79h4.91v1.36h-4.91v-1.36Zm1.7,6.15c-.3-.3-.46-.75-.46-1.35V4.99h1.7v6.26c0,.27,.07,.47,.2,.59s.33,.19,.59,.19h1.2v1.36h-1.87c-.61,0-1.06-.15-1.37-.45Z"/><path class="d" d="M105.14,13.06c-.63-.36-1.12-.88-1.48-1.55-.35-.67-.53-1.45-.53-2.33s.17-1.67,.5-2.33c.34-.66,.82-1.17,1.45-1.53,.63-.36,1.38-.54,2.24-.54,.78,0,1.46,.15,2.03,.45s1.02,.71,1.34,1.22c.32,.51,.51,1.08,.56,1.72h-1.87c-.03-.37-.13-.7-.29-1-.16-.3-.39-.54-.69-.71-.3-.18-.66-.26-1.09-.26-.48,0-.89,.11-1.23,.34-.34,.23-.6,.56-.79,1.01-.18,.44-.28,.99-.28,1.65s.1,1.2,.29,1.65c.19,.45,.46,.79,.8,1.03,.34,.23,.74,.35,1.2,.35,.42,0,.77-.09,1.07-.27s.53-.41,.69-.7,.27-.6,.31-.95h1.87c-.08,.62-.28,1.17-.6,1.67s-.76,.9-1.33,1.2c-.57,.3-1.24,.45-2,.45-.83,0-1.56-.18-2.2-.55Z"/><path class="d" d="M113.55,13.19c-.51-.28-.92-.68-1.21-1.21-.3-.53-.44-1.16-.44-1.9s.15-1.37,.44-1.9c.3-.53,.7-.93,1.21-1.21,.51-.28,1.08-.41,1.72-.41s1.2,.14,1.72,.41c.51,.28,.92,.68,1.21,1.21,.3,.53,.44,1.16,.44,1.9s-.15,1.37-.44,1.9c-.3,.53-.7,.93-1.21,1.21-.51,.28-1.08,.41-1.72,.41s-1.2-.14-1.72-.41Zm2.54-1.15c.23-.16,.41-.41,.53-.74s.19-.73,.19-1.21-.06-.88-.19-1.21c-.12-.33-.3-.57-.53-.74s-.51-.25-.83-.25-.61,.08-.84,.25c-.23,.16-.41,.41-.53,.74-.12,.33-.18,.73-.18,1.21s.06,.88,.18,1.21,.3,.57,.53,.74c.23,.16,.51,.25,.84,.25s.6-.08,.83-.25Z"/><path class="d" d="M119.59,6.79h1.68v.91h.02c.2-.37,.47-.65,.8-.84,.34-.19,.72-.29,1.15-.29s.84,.1,1.18,.29c.34,.2,.6,.49,.79,.88,.19,.39,.28,.87,.28,1.43v4.21h-1.7v-4.01c0-.5-.1-.87-.31-1.12-.2-.25-.49-.37-.85-.37-.24,0-.46,.06-.67,.17-.2,.11-.37,.29-.49,.53s-.19,.55-.19,.93v3.86h-1.7V6.79Z"/><path class="d" d="M126.08,6.79h4.91v1.36h-4.91v-1.36Zm1.7,6.15c-.3-.3-.46-.75-.46-1.35V4.99h1.7v6.26c0,.27,.07,.47,.2,.59s.33,.19,.59,.19h1.2v1.36h-1.87c-.61,0-1.06-.15-1.37-.45Z"/><path class="d" d="M131.84,6.79h1.68v1h.02c.17-.34,.37-.6,.61-.76,.24-.16,.56-.24,.95-.24h.64v1.36h-.97c-.42,0-.73,.11-.93,.34-.2,.22-.29,.58-.29,1.08v3.83h-1.7V6.79Z"/><path class="d" d="M137.61,13.19c-.51-.28-.92-.68-1.21-1.21-.3-.53-.44-1.16-.44-1.9s.15-1.37,.44-1.9c.3-.53,.7-.93,1.21-1.21,.51-.28,1.08-.41,1.72-.41s1.2,.14,1.72,.41c.51,.28,.92,.68,1.21,1.21,.3,.53,.44,1.16,.44,1.9s-.15,1.37-.44,1.9c-.3,.53-.7,.93-1.21,1.21-.51,.28-1.08,.41-1.72,.41s-1.2-.14-1.72-.41Zm2.54-1.15c.23-.16,.41-.41,.53-.74s.19-.73,.19-1.21-.06-.88-.19-1.21c-.12-.33-.3-.57-.53-.74s-.51-.25-.83-.25-.61,.08-.84,.25c-.23,.16-.41,.41-.53,.74-.12,.33-.18,.73-.18,1.21s.06,.88,.18,1.21,.3,.57,.53,.74c.23,.16,.51,.25,.84,.25s.6-.08,.83-.25Z"/><path class="d" d="M143.65,4.02h1.7V13.39h-1.7V4.02Z"/></g></g></g></svg>