<?xml version="1.0" encoding="UTF-8"?><svg xmlns="http://www.w3.org/2000/svg" viewBox="0 0 64.41 18.79"><defs><style>.d{fill:#fff;}</style></defs><g id="a"/><g id="b"><g id="c"><g><path class="d" d="M0,.51H13.02V3.94H4.7v3.58h7.34v3.43H4.7v7.34H0V.51Z"/><path class="d" d="M14.34,.51h7.57c1.68,0,3.17,.35,4.48,1.05,1.31,.7,2.34,1.72,3.08,3.06,.74,1.34,1.12,2.93,1.12,4.77s-.37,3.44-1.12,4.77c-.74,1.34-1.77,2.36-3.08,3.06-1.31,.7-2.81,1.05-4.48,1.05h-7.57V.51Zm9.15,13.52c.6-.38,1.04-.96,1.33-1.73,.29-.77,.43-1.74,.43-2.91s-.14-2.14-.43-2.91c-.29-.77-.73-1.35-1.33-1.73-.6-.38-1.38-.57-2.35-.57h-1.85V14.6h1.85c.96,0,1.75-.19,2.35-.57Z"/><path class="d" d="M30.06,.51h5.31l2.23,6.45c.74,2.17,1.29,4.04,1.62,5.61h.05c.37-1.69,.91-3.56,1.62-5.61l2.23-6.45h5.31l-6.65,17.77h-5.08L30.06,.51Z"/><path class="d" d="M51.87,18c-1.22-.52-2.15-1.29-2.78-2.29-.63-1-.95-2.19-.95-3.58h5.33c0,.69,.11,1.26,.34,1.7,.23,.44,.56,.76,.99,.96s.94,.3,1.54,.3c.56,0,1.04-.08,1.45-.25,.41-.17,.72-.41,.95-.74,.23-.32,.34-.71,.34-1.17,0-.64-.22-1.13-.66-1.46s-1.04-.5-1.8-.5h-2.18c-2,0-3.5-.45-4.52-1.36-1.02-.91-1.52-2.15-1.52-3.74,0-1.22,.3-2.27,.89-3.15,.59-.88,1.48-1.56,2.65-2.03,1.18-.47,2.62-.71,4.33-.71s3.2,.25,4.38,.74c1.18,.49,2.06,1.21,2.64,2.15,.58,.94,.88,2.08,.88,3.41h-5.15c0-.91-.23-1.58-.7-1.99-.47-.41-1.16-.62-2.07-.62-.58,0-1.06,.07-1.46,.22-.4,.14-.7,.35-.9,.62-.2,.27-.3,.6-.3,.99,0,.56,.2,.99,.61,1.31,.41,.31,.98,.47,1.73,.47h2.18c2.06,0,3.63,.47,4.71,1.42,1.07,.95,1.61,2.23,1.61,3.86,0,1.24-.32,2.32-.95,3.26-.63,.94-1.56,1.67-2.78,2.18-1.22,.52-2.68,.77-4.39,.77s-3.2-.26-4.42-.79Z"/></g></g></g></svg>