<?xml version="1.0" encoding="UTF-8"?><svg xmlns="http://www.w3.org/2000/svg" viewBox="0 0 143.92 18.79"><defs><style>.d{fill:#fff;}.e{fill:none;stroke:#ecfffa;stroke-miterlimit:10;stroke-width:2px;}</style></defs><g id="a"/><g id="b"><g id="c"><g><path class="d" d="M0,.51H13.02V3.94H4.7v3.58h7.34v3.43H4.7v7.34H0V.51Z"/><path class="d" d="M14.34,.51h7.57c1.68,0,3.17,.35,4.48,1.05,1.31,.7,2.34,1.72,3.08,3.06,.74,1.34,1.12,2.93,1.12,4.77s-.37,3.44-1.12,4.77c-.74,1.34-1.77,2.36-3.08,3.06-1.31,.7-2.81,1.05-4.48,1.05h-7.57V.51Zm9.15,13.52c.6-.38,1.04-.96,1.33-1.73,.29-.77,.43-1.74,.43-2.91s-.14-2.14-.43-2.91c-.29-.77-.73-1.35-1.33-1.73-.6-.38-1.38-.57-2.35-.57h-1.85V14.6h1.85c.96,0,1.75-.19,2.35-.57Z"/><path class="d" d="M30.06,.51h5.31l2.23,6.45c.74,2.17,1.29,4.04,1.62,5.61h.05c.37-1.69,.91-3.56,1.62-5.61l2.23-6.45h5.31l-6.65,17.77h-5.08L30.06,.51Z"/><path class="d" d="M51.87,18c-1.22-.52-2.15-1.29-2.78-2.29-.63-1-.95-2.19-.95-3.58h5.33c0,.69,.11,1.26,.34,1.7,.23,.44,.56,.76,.99,.96s.94,.3,1.54,.3c.56,0,1.04-.08,1.45-.25,.41-.17,.72-.41,.95-.74,.23-.32,.34-.71,.34-1.17,0-.64-.22-1.13-.66-1.46s-1.04-.5-1.8-.5h-2.18c-2,0-3.5-.45-4.52-1.36-1.02-.91-1.52-2.15-1.52-3.74,0-1.22,.3-2.27,.89-3.15,.59-.88,1.48-1.56,2.65-2.03,1.18-.47,2.62-.71,4.33-.71s3.2,.25,4.38,.74c1.18,.49,2.06,1.21,2.64,2.15,.58,.94,.88,2.08,.88,3.41h-5.15c0-.91-.23-1.58-.7-1.99-.47-.41-1.16-.62-2.07-.62-.58,0-1.06,.07-1.46,.22-.4,.14-.7,.35-.9,.62-.2,.27-.3,.6-.3,.99,0,.56,.2,.99,.61,1.31,.41,.31,.98,.47,1.73,.47h2.18c2.06,0,3.63,.47,4.71,1.42,1.07,.95,1.61,2.23,1.61,3.86,0,1.24-.32,2.32-.95,3.26-.63,.94-1.56,1.67-2.78,2.18-1.22,.52-2.68,.77-4.39,.77s-3.2-.26-4.42-.79Z"/></g><line class="e" x1="72.21" y1=".51" x2="72.21" y2="18.28"/><g><path class="d" d="M80.59,4.99h3.36c.79,0,1.5,.17,2.12,.5s1.11,.81,1.46,1.45c.35,.63,.53,1.38,.53,2.26s-.18,1.62-.53,2.26c-.35,.63-.84,1.11-1.46,1.45s-1.33,.5-2.12,.5h-3.36V4.99Zm4.45,6.68c.36-.21,.63-.52,.82-.94,.19-.42,.29-.93,.29-1.54s-.1-1.13-.29-1.55c-.19-.42-.47-.73-.82-.94-.36-.21-.79-.31-1.29-.31h-1.37v5.59h1.37c.5,0,.93-.1,1.29-.31Z"/><path class="d" d="M92.36,13.26c-.4,.23-.85,.35-1.36,.35-.44,0-.83-.08-1.18-.25-.34-.16-.62-.41-.82-.73-.2-.32-.3-.7-.3-1.15,0-.71,.24-1.24,.71-1.58,.48-.34,1.07-.52,1.79-.52h1.08c.31,0,.55-.06,.7-.18,.16-.12,.23-.29,.23-.5,0-.26-.11-.46-.32-.6-.21-.14-.49-.2-.83-.2-.4,0-.71,.09-.94,.27-.23,.18-.35,.43-.37,.76h-1.81c.05-.74,.32-1.32,.83-1.73,.5-.41,1.25-.62,2.24-.62,.68,0,1.23,.1,1.66,.29,.43,.19,.74,.46,.94,.81,.2,.35,.3,.75,.3,1.22v2.69c0,.17,.03,.29,.1,.35,.07,.07,.18,.1,.34,.1h.24v1.36h-1.16c-.38,0-.67-.08-.87-.25-.2-.17-.29-.41-.29-.73v-.19h-.02c-.21,.46-.51,.81-.91,1.04Zm.02-1.19c.25-.12,.45-.32,.61-.58,.16-.26,.24-.6,.24-1.01v-.56h-.02c-.1,.19-.25,.34-.44,.43-.19,.1-.44,.16-.76,.18l-.46,.04c-.34,.02-.59,.1-.76,.25s-.25,.35-.25,.59,.08,.45,.25,.61,.43,.24,.78,.24c.29,0,.56-.06,.8-.19Z"/><path class="d" d="M97.45,13.31c-.44-.2-.78-.47-1.01-.83-.23-.36-.36-.78-.37-1.27h1.76c0,.37,.12,.64,.34,.82,.22,.18,.51,.26,.89,.26,.25,0,.46-.04,.63-.11,.17-.07,.3-.17,.39-.31s.13-.29,.13-.46c0-.26-.09-.45-.26-.58s-.45-.2-.82-.2h-.72c-.7,0-1.24-.17-1.63-.52-.39-.34-.59-.8-.59-1.38,0-.42,.11-.8,.34-1.13,.23-.33,.56-.58,.98-.76,.43-.18,.93-.27,1.52-.27s1.13,.1,1.55,.29c.43,.2,.75,.47,.98,.82,.22,.35,.34,.76,.35,1.24h-1.73c0-.34-.11-.59-.3-.77-.19-.18-.47-.26-.84-.26-.33,0-.59,.07-.77,.2-.19,.14-.28,.33-.28,.58,0,.22,.08,.39,.24,.51,.16,.12,.39,.17,.7,.17h.79c.77,0,1.35,.18,1.73,.55,.39,.37,.58,.84,.58,1.43,0,.45-.11,.84-.34,1.18-.23,.34-.56,.61-1.01,.8-.44,.19-.98,.29-1.61,.29s-1.17-.1-1.61-.29Z"/><path class="d" d="M102.98,4.02h1.7v2.58c0,.35,0,.72-.02,1.1h.02c.18-.36,.44-.64,.77-.83,.33-.2,.72-.29,1.16-.29s.83,.1,1.18,.29c.34,.2,.61,.48,.8,.86s.29,.83,.29,1.36v4.31h-1.7v-4.01c0-.5-.1-.88-.31-1.12-.2-.24-.49-.37-.85-.37-.25,0-.47,.05-.67,.16s-.36,.28-.49,.53c-.12,.24-.19,.56-.19,.94v3.86h-1.7V4.02Z"/><path class="d" d="M112.61,13.27c-.36-.22-.64-.53-.83-.92h-.02c0,.17,.01,.4,.01,.71v.34h-1.69V4.02h1.7v3.17c0,.28,0,.5-.02,.65h.02c.19-.39,.47-.7,.83-.92s.79-.34,1.27-.34c.52,0,1,.14,1.43,.41,.44,.27,.78,.67,1.04,1.2s.39,1.16,.39,1.91-.13,1.38-.39,1.91c-.26,.53-.61,.93-1.04,1.2-.44,.27-.91,.41-1.43,.41-.48,0-.9-.11-1.27-.34Zm1.58-1.25c.24-.18,.42-.43,.54-.76s.19-.72,.19-1.18-.06-.85-.19-1.18c-.12-.33-.3-.58-.54-.76s-.52-.26-.86-.26-.62,.09-.86,.26c-.24,.18-.41,.43-.53,.76-.12,.33-.18,.72-.18,1.18s.06,.85,.18,1.18,.3,.58,.53,.76c.24,.18,.52,.26,.86,.26s.62-.09,.86-.26Z"/><path class="d" d="M119.08,13.19c-.51-.28-.92-.68-1.21-1.21-.3-.53-.44-1.16-.44-1.9s.15-1.37,.44-1.9c.3-.53,.7-.93,1.21-1.21,.51-.28,1.08-.41,1.72-.41s1.2,.14,1.72,.41c.51,.28,.92,.68,1.21,1.21,.3,.53,.44,1.16,.44,1.9s-.15,1.37-.44,1.9c-.3,.53-.7,.93-1.21,1.21-.51,.28-1.08,.41-1.72,.41s-1.2-.14-1.72-.41Zm2.54-1.15c.23-.16,.41-.41,.53-.74s.19-.73,.19-1.21-.06-.88-.19-1.21c-.12-.33-.3-.57-.53-.74s-.51-.25-.83-.25-.61,.08-.84,.25c-.23,.16-.41,.41-.53,.74-.12,.33-.18,.73-.18,1.21s.06,.88,.18,1.21,.3,.57,.53,.74c.23,.16,.51,.25,.84,.25s.6-.08,.83-.25Z"/><path class="d" d="M128.42,13.26c-.4,.23-.85,.35-1.36,.35-.44,0-.83-.08-1.18-.25-.34-.16-.62-.41-.82-.73-.2-.32-.3-.7-.3-1.15,0-.71,.24-1.24,.71-1.58,.48-.34,1.07-.52,1.79-.52h1.08c.31,0,.55-.06,.7-.18,.16-.12,.23-.29,.23-.5,0-.26-.11-.46-.32-.6-.21-.14-.49-.2-.83-.2-.4,0-.71,.09-.94,.27-.23,.18-.35,.43-.37,.76h-1.81c.05-.74,.32-1.32,.83-1.73,.5-.41,1.25-.62,2.24-.62,.68,0,1.23,.1,1.66,.29,.43,.19,.74,.46,.94,.81,.2,.35,.3,.75,.3,1.22v2.69c0,.17,.03,.29,.1,.35,.07,.07,.18,.1,.34,.1h.24v1.36h-1.16c-.38,0-.67-.08-.87-.25-.2-.17-.29-.41-.29-.73v-.19h-.02c-.21,.46-.51,.81-.91,1.04Zm.02-1.19c.25-.12,.45-.32,.61-.58,.16-.26,.24-.6,.24-1.01v-.56h-.02c-.1,.19-.25,.34-.44,.43-.19,.1-.44,.16-.76,.18l-.46,.04c-.34,.02-.59,.1-.76,.25s-.25,.35-.25,.59,.08,.45,.25,.61,.43,.24,.78,.24c.29,0,.56-.06,.8-.19Z"/><path class="d" d="M132.47,6.79h1.68v1h.02c.17-.34,.37-.6,.61-.76,.24-.16,.56-.24,.95-.24h.64v1.36h-.97c-.42,0-.73,.11-.93,.34-.2,.22-.29,.58-.29,1.08v3.83h-1.7V6.79Z"/><path class="d" d="M138.01,13.2c-.44-.27-.79-.67-1.04-1.2-.26-.53-.38-1.16-.38-1.91s.13-1.38,.38-1.91,.6-.93,1.04-1.2c.44-.27,.92-.41,1.44-.41,.47,0,.89,.11,1.25,.34s.65,.53,.85,.92h.02c-.02-.15-.02-.37-.02-.65v-3.17h1.7V13.39h-1.69v-.34c0-.3,0-.54,.01-.71h-.02c-.2,.39-.48,.7-.85,.92-.36,.22-.78,.34-1.25,.34-.52,0-1-.14-1.44-.41Zm2.83-1.18c.24-.18,.42-.43,.54-.76,.12-.33,.18-.72,.18-1.18s-.06-.85-.18-1.18c-.12-.33-.3-.58-.54-.76-.24-.18-.53-.26-.86-.26s-.61,.09-.85,.26-.42,.43-.54,.76c-.12,.33-.18,.72-.18,1.18s.06,.85,.18,1.18,.3,.58,.54,.76c.24,.18,.52,.26,.85,.26s.62-.09,.86-.26Z"/></g></g></g></svg>