<?xml version="1.0" encoding="utf-8"?>
<!-- Generator: Adobe Illustrator 24.2.2, SVG Export Plug-In . SVG Version: 6.00 Build 0)  -->
<svg version="1.1" id="Layer_1" xmlns="http://www.w3.org/2000/svg" xmlns:xlink="http://www.w3.org/1999/xlink" x="0px" y="0px"
	 viewBox="0 0 64 64" style="enable-background:new 0 0 64 64;" xml:space="preserve">
<g id="a">
</g>
<g id="b">
	<g id="c">
		<g>
			<path d="M-0.2,23.1h13v3.4H4.5v3.6h7.3v3.4H4.5v7.3h-4.7V23.1z"/>
			<path d="M14.1,23.1h7.6c1.7,0,3.2,0.3,4.5,1s2.3,1.7,3.1,3.1s1.1,2.9,1.1,4.8s-0.4,3.4-1.1,4.8c-0.7,1.3-1.8,2.4-3.1,3.1
				c-1.3,0.7-2.8,1-4.5,1h-7.6V23.1z M23.3,36.7c0.6-0.4,1-1,1.3-1.7s0.4-1.7,0.4-2.9c0-1.2-0.1-2.1-0.4-2.9
				c-0.3-0.8-0.7-1.4-1.3-1.7c-0.6-0.4-1.4-0.6-2.4-0.6h-1.9v10.4h1.9C21.9,37.2,22.7,37,23.3,36.7z"/>
			<path d="M29.9,23.1h5.3l2.2,6.4c0.7,2.2,1.3,4,1.6,5.6h0c0.4-1.7,0.9-3.6,1.6-5.6l2.2-6.5h5.3l-6.7,17.8h-5.1L29.9,23.1z"/>
			<path d="M51.7,40.6c-1.2-0.5-2.2-1.3-2.8-2.3c-0.6-1-1-2.2-1-3.6h5.3c0,0.7,0.1,1.3,0.3,1.7c0.2,0.4,0.6,0.8,1,1
				c0.4,0.2,0.9,0.3,1.5,0.3c0.6,0,1-0.1,1.5-0.3c0.4-0.2,0.7-0.4,1-0.7c0.2-0.3,0.3-0.7,0.3-1.2c0-0.6-0.2-1.1-0.7-1.5
				c-0.4-0.3-1-0.5-1.8-0.5h-2.2c-2,0-3.5-0.5-4.5-1.4s-1.5-2.2-1.5-3.7c0-1.2,0.3-2.3,0.9-3.2c0.6-0.9,1.5-1.6,2.7-2
				c1.2-0.5,2.6-0.7,4.3-0.7s3.2,0.3,4.4,0.7c1.2,0.5,2.1,1.2,2.6,2.2c0.6,0.9,0.9,2.1,0.9,3.4h-5.2c0-0.9-0.2-1.6-0.7-2
				s-1.2-0.6-2.1-0.6c-0.6,0-1.1,0.1-1.5,0.2c-0.4,0.1-0.7,0.3-0.9,0.6s-0.3,0.6-0.3,1c0,0.6,0.2,1,0.6,1.3c0.4,0.3,1,0.5,1.7,0.5
				h2.2c2.1,0,3.6,0.5,4.7,1.4c1.1,1,1.6,2.2,1.6,3.9c0,1.2-0.3,2.3-1,3.3s-1.6,1.7-2.8,2.2c-1.2,0.5-2.7,0.8-4.4,0.8
				S52.9,41.1,51.7,40.6L51.7,40.6z"/>
		</g>
	</g>
</g>
</svg>
